<mxfile host="65bd71144e">
    <diagram id="f65KI2HB5In2QQvOmHiV" name="Page-1">
        <mxGraphModel dx="1098" dy="790" grid="1" gridSize="10" guides="1" tooltips="1" connect="1" arrows="1" fold="1" page="1" pageScale="1" pageWidth="850" pageHeight="1100" math="0" shadow="0">
            <root>
                <mxCell id="0"/>
                <mxCell id="1" parent="0"/>
                <mxCell id="GRSJy6BLNA-01PtSvCOn-1" value="&lt;div&gt;&amp;nbsp;Enregistre un plat&lt;br&gt;&lt;/div&gt;" style="ellipse;whiteSpace=wrap;html=1;fontFamily=Helvetica;fontSize=12;" parent="1" vertex="1">
                    <mxGeometry x="400" y="40" width="160" height="80" as="geometry"/>
                </mxCell>
                <mxCell id="GRSJy6BLNA-01PtSvCOn-2" value="&lt;font style=&quot;font-size: 12px&quot; face=&quot;Helvetica&quot; color=&quot;#ffffff&quot;&gt;&lt;span id=&quot;docs-internal-guid-d50050bc-7fff-994a-3e60-8d328730251a&quot; style=&quot;background-color: transparent ; font-style: normal ; font-variant: normal ; text-decoration: none ; vertical-align: baseline&quot;&gt;chef expérimenté&lt;/span&gt;&lt;/font&gt;" style="shape=umlActor;verticalLabelPosition=bottom;verticalAlign=top;html=1;" parent="1" vertex="1">
                    <mxGeometry x="40" y="40" width="40" height="80" as="geometry"/>
                </mxCell>
                <mxCell id="GRSJy6BLNA-01PtSvCOn-4" value="Client" style="shape=umlActor;verticalLabelPosition=bottom;verticalAlign=top;html=1;" parent="1" vertex="1">
                    <mxGeometry x="640" y="320" width="40" height="80" as="geometry"/>
                </mxCell>
                <mxCell id="GRSJy6BLNA-01PtSvCOn-7" value="Consulte le menu" style="ellipse;whiteSpace=wrap;html=1;" parent="1" vertex="1">
                    <mxGeometry x="400" y="320" width="160" height="80" as="geometry"/>
                </mxCell>
                <mxCell id="jJfzDPhYmshElaF9zIT1-2" value="" style="endArrow=classic;html=1;rounded=0;entryX=1;entryY=0.5;entryDx=0;entryDy=0;" parent="1" target="GRSJy6BLNA-01PtSvCOn-7" edge="1">
                    <mxGeometry width="50" height="50" relative="1" as="geometry">
                        <mxPoint x="630" y="360" as="sourcePoint"/>
                        <mxPoint x="560" y="430" as="targetPoint"/>
                    </mxGeometry>
                </mxCell>
                <mxCell id="jJfzDPhYmshElaF9zIT1-6" value="S'authentifier" style="ellipse;whiteSpace=wrap;html=1;" parent="1" vertex="1">
                    <mxGeometry x="200" y="40" width="160" height="80" as="geometry"/>
                </mxCell>
                <mxCell id="jJfzDPhYmshElaF9zIT1-7" value="&amp;lt;&amp;lt;include&amp;gt;&amp;gt;" style="endArrow=open;endSize=12;dashed=1;html=1;rounded=0;entryX=0;entryY=0.5;entryDx=0;entryDy=0;" parent="1" source="GRSJy6BLNA-01PtSvCOn-2" target="jJfzDPhYmshElaF9zIT1-6" edge="1">
                    <mxGeometry width="160" relative="1" as="geometry">
                        <mxPoint x="340" y="350" as="sourcePoint"/>
                        <mxPoint x="500" y="350" as="targetPoint"/>
                    </mxGeometry>
                </mxCell>
                <mxCell id="jJfzDPhYmshElaF9zIT1-9" value="" style="endArrow=classic;html=1;rounded=0;entryX=0;entryY=0.5;entryDx=0;entryDy=0;exitX=1;exitY=0.5;exitDx=0;exitDy=0;" parent="1" source="jJfzDPhYmshElaF9zIT1-6" target="GRSJy6BLNA-01PtSvCOn-1" edge="1">
                    <mxGeometry width="50" height="50" relative="1" as="geometry">
                        <mxPoint x="260" y="260" as="sourcePoint"/>
                        <mxPoint x="310" y="210" as="targetPoint"/>
                    </mxGeometry>
                </mxCell>
                <mxCell id="jJfzDPhYmshElaF9zIT1-10" value="&lt;div&gt;Livreur à domicile&lt;/div&gt;" style="shape=umlActor;verticalLabelPosition=bottom;verticalAlign=top;html=1;" parent="1" vertex="1">
                    <mxGeometry x="40" y="320" width="40" height="80" as="geometry"/>
                </mxCell>
                <mxCell id="jJfzDPhYmshElaF9zIT1-11" value="" style="endArrow=classic;html=1;rounded=0;entryX=0;entryY=0.5;entryDx=0;entryDy=0;" parent="1" target="GRSJy6BLNA-01PtSvCOn-7" edge="1" source="jJfzDPhYmshElaF9zIT1-10">
                    <mxGeometry width="50" height="50" relative="1" as="geometry">
                        <mxPoint x="160" y="360" as="sourcePoint"/>
                        <mxPoint x="310" y="230" as="targetPoint"/>
                    </mxGeometry>
                </mxCell>
                <mxCell id="jJfzDPhYmshElaF9zIT1-12" value="" style="endArrow=classic;html=1;rounded=0;entryX=0.5;entryY=0;entryDx=0;entryDy=0;exitX=0.5;exitY=1;exitDx=0;exitDy=0;" parent="1" source="GRSJy6BLNA-01PtSvCOn-1" target="GRSJy6BLNA-01PtSvCOn-7" edge="1">
                    <mxGeometry width="50" height="50" relative="1" as="geometry">
                        <mxPoint x="440" y="120" as="sourcePoint"/>
                        <mxPoint x="310" y="230" as="targetPoint"/>
                    </mxGeometry>
                </mxCell>
                <mxCell id="jJfzDPhYmshElaF9zIT1-13" value="&amp;lt;&amp;lt;include&amp;gt;&amp;gt;" style="endArrow=open;endSize=12;dashed=1;html=1;rounded=0;" parent="1" target="jJfzDPhYmshElaF9zIT1-6" edge="1" source="jJfzDPhYmshElaF9zIT1-10">
                    <mxGeometry width="160" relative="1" as="geometry">
                        <mxPoint x="80" y="330" as="sourcePoint"/>
                        <mxPoint x="370" y="250" as="targetPoint"/>
                    </mxGeometry>
                </mxCell>
            </root>
        </mxGraphModel>
    </diagram>
</mxfile>